<svg width="17" height="17" viewBox="0 0 17 17" fill="none" xmlns="http://www.w3.org/2000/svg">
<g id="invisible 1" clip-path="url(#clip0_1_29)">
<g id="Group">
<g id="Group_2">
<g id="Group_3">
<path id="Vector" d="M8.37061 5.80749L10.8041 8.24102L10.8157 8.11355C10.8157 6.83497 9.77666 5.7959 8.49808 5.7959L8.37061 5.80749Z" fill="#A7A3FF"/>
<path id="Vector_2" d="M8.49807 4.2507C10.6303 4.2507 12.3608 5.98123 12.3608 8.11347C12.3608 8.61177 12.2604 9.08689 12.0866 9.52337L14.3463 11.7831C15.5128 10.8097 16.4322 9.55042 17 8.11347C15.6597 4.72198 12.3647 2.31934 8.4981 2.31934C7.41652 2.31934 6.38132 2.51246 5.41949 2.86011L7.08821 4.52495C7.52465 4.355 7.99977 4.2507 8.49807 4.2507Z" fill="#A7A3FF"/>
<path id="Vector_3" d="M0.77254 2.14565L2.53396 3.90707L2.88548 4.25859C1.61077 5.25518 0.60259 6.58012 0 8.11361C1.33653 11.5051 4.63531 13.9077 8.49808 13.9077C9.69555 13.9077 10.8389 13.676 11.8857 13.2549L12.2141 13.5833L14.4661 15.8391L15.4511 14.858L1.75754 1.16064L0.77254 2.14565ZM5.04477 6.41401L6.23837 7.6076C6.2036 7.77371 6.18043 7.93979 6.18043 8.11361C6.18043 9.3922 7.2195 10.4313 8.49808 10.4313C8.6719 10.4313 8.83801 10.4081 9.00025 10.3733L10.1938 11.5669C9.68008 11.8219 9.10842 11.9764 8.49808 11.9764C6.36584 11.9764 4.63531 10.2459 4.63531 8.11361C4.63531 7.50331 4.78983 6.93161 5.04477 6.41401Z" fill="#A7A3FF"/>
</g>
</g>
</g>
</g>
<defs>
<clipPath id="clip0_1_29">
<rect width="17" height="17" fill="white"/>
</clipPath>
</defs>
</svg>
